<svg width="100%" height="100%" viewBox="0 0 71 71" fill="none" xmlns="http://www.w3.org/2000/svg">
<g filter="url(#filter0_d)">
<path d="M17.875 59H53.125C56.3697 59 59 56.3697 59 53.125V17.875C59 14.6303 56.3697 12 53.125 12H17.875C14.6303 12 12 14.6303 12 17.875V53.125C12 56.3697 14.6303 59 17.875 59Z" fill="#2C3344"/>
<path d="M48.7188 46.1484C48.7188 47.3652 47.7324 48.3515 46.5156 48.3515H40.1323L48.7188 39.5496V46.1484Z" fill="white"/>
<path d="M48.7188 24.8724C48.7188 23.6476 47.7197 22.6578 46.4949 22.6693L40.1323 22.7291L48.7188 31.5508V24.8724Z" fill="white"/>
<path fill-rule="evenodd" clip-rule="evenodd" d="M29.7938 48.3516C31.3498 48.3516 32.8421 47.7343 33.9435 46.6353L42.6165 37.9815L44.0745 36.5469C44.6593 35.9715 44.6593 35.0284 44.0745 34.4531L42.6149 33.017L33.9435 24.3646C32.8421 23.2656 31.3498 22.6484 29.7938 22.6484H22.2812L33.9602 34.3018C34.4767 34.8804 34.8819 35.6117 33.9252 36.7331L22.2812 48.3516H29.7938Z" fill="white"/>
<path d="M22.3271 34.582C21.831 34.582 21.4283 34.9933 21.4283 35.5C21.4283 36.0067 21.831 36.4179 22.3271 36.4179C22.8233 36.4179 23.226 36.0067 23.226 35.5C23.226 34.9933 22.8233 34.582 22.3271 34.582ZM22.3271 33.6641C21.3348 33.6641 20.5295 34.4866 20.5295 35.5C20.5295 36.5134 21.3348 37.3359 22.3271 37.3359C23.3195 37.3359 24.1248 36.5134 24.1248 35.5C24.1248 34.4866 23.3195 33.6641 22.3271 33.6641ZM22.3271 36.9687C21.5326 36.9687 20.889 36.3115 20.889 35.5C20.889 34.6885 21.5326 34.0312 22.3271 34.0312C23.1217 34.0312 23.7653 34.6885 23.7653 35.5C23.7653 36.3115 23.1217 36.9687 22.3271 36.9687Z" fill="#F7C545"/>
</g>
<defs>
<filter id="filter0_d" x="0" y="0" width="71" height="71" filterUnits="userSpaceOnUse" color-interpolation-filters="sRGB">
<feFlood flood-opacity="0" result="BackgroundImageFix"/>
<feColorMatrix in="SourceAlpha" type="matrix" values="0 0 0 0 0 0 0 0 0 0 0 0 0 0 0 0 0 0 127 0"/>
<feOffset/>
<feGaussianBlur stdDeviation="6"/>
<feColorMatrix type="matrix" values="0 0 0 0 0.968627 0 0 0 0 0.772549 0 0 0 0 0.270588 0 0 0 0.6 0"/>
<feBlend mode="normal" in2="BackgroundImageFix" result="effect1_dropShadow"/>
<feBlend mode="normal" in="SourceGraphic" in2="effect1_dropShadow" result="shape"/>
</filter>
</defs>
</svg>
