<svg xmlns="http://www.w3.org/2000/svg" width="38" height="35" viewBox="0 0 38 35">
  <g id="svgg" transform="translate(-0.82 -0.031)">
    <path id="path0" d="M10.108,17.44C4.915,27.017.736,34.923.822,35.009S5.18,30.7,10.315,25.231s9.417-9.9,9.514-9.849,1.885,1.85,3.974,4.007l3.8,3.921-2.206-.14c-4.583-.292-10.569,1.353-13.267,3.644-1.514,1.285-1.339,1.379,1.378.736,6.915-1.637,15.626.585,22.741,5.8a14.431,14.431,0,0,0,2.574,1.678c.174-.175-18.77-34.992-19.041-35-.125,0-4.477,7.833-9.67,17.409" transform="translate(0 0)" fill="#0d0d0d" fill-rule="evenodd"/>
  </g>
</svg>

